<svg width="348" height="290" viewBox="0 0 348 290" fill="none" xmlns="http://www.w3.org/2000/svg">
<path d="M174 289.973C270.098 289.973 348 280.349 348 268.477C348 256.605 270.098 246.981 174 246.981C77.9025 246.981 0 256.605 0 268.477C0 280.349 77.9025 289.973 174 289.973Z" fill="url(#paint0_linear_101_98)"/>
<path d="M78.6801 58.4696C75.4526 56.2809 71.8186 54.7624 67.9934 54.0042C64.1682 53.246 60.2297 53.2635 56.4114 54.0556C55.0138 54.2733 53.6933 54.8387 52.5712 55.6998C49.9559 57.9068 50.3642 62.0118 49.669 65.3886C48.8193 69.5487 46.0275 73.1131 45.0233 77.2181C44.4385 80.307 44.4049 83.4751 44.924 86.5758C46.3943 98.8067 49.3247 110.818 53.6527 122.351L41.5142 282.26C41.5142 282.26 53.9286 284.268 79.1104 286.276L81.7809 133.993L78.6801 58.4696Z" fill="#EEA886"/>
<path d="M64.8745 151.726L80.9525 216.745V122.969L73.8018 101.716L64.8745 151.726Z" fill="url(#paint1_linear_101_98)"/>
<path d="M275.125 59.8379C278.359 57.6654 281.996 56.1633 285.821 55.4203C289.646 54.6774 293.581 54.7086 297.394 55.5122C298.793 55.7349 300.116 56.2996 301.245 57.1564C303.849 59.3634 303.452 63.4684 304.136 66.8562C304.997 71.0164 307.789 74.5807 308.793 78.6857C309.379 81.771 309.409 84.9365 308.881 88.0323C307.421 100.264 304.494 112.276 300.163 123.808L312.247 281.487C312.247 281.487 298.729 283.76 274.573 286.045L271.98 135.439L275.125 59.8379Z" fill="#EEA886"/>
<path d="M290.993 147.081L285.288 176.379L273.138 202.808L272.068 145.293L290.993 147.081Z" fill="url(#paint2_linear_101_98)"/>
<path d="M282.474 6.1637H67.3242C62.2231 6.1637 58.0879 10.2989 58.0879 15.4V144.101C58.0879 149.202 62.2231 153.338 67.3242 153.338H282.474C287.575 153.338 291.71 149.202 291.71 144.101V15.4C291.71 10.2989 287.575 6.1637 282.474 6.1637Z" fill="url(#paint3_linear_101_98)"/>
<path d="M67.2512 0.5H282.749C287.553 0.5 291.5 4.65732 291.5 9.85296V147.147C291.5 152.343 287.553 156.5 282.749 156.5H67.2512C62.4473 156.5 58.5 152.343 58.5 147.147V9.85296C58.5 4.65732 62.4473 0.5 67.2512 0.5Z" fill="white" stroke="#FBE2D6"/>
<path d="M78.7793 61.6145C82.4981 57.4875 82.4981 57.4875 86.7024 52.5438L104.612 31.5773C107.429 28.5014 110.011 25.2184 112.337 21.7561H129.253C128.778 26.305 128.561 30.8771 128.602 35.4505V62.2766H130.997C133.731 62.2508 136.46 62.0295 139.163 61.6145V76.6442C136.48 76.3112 133.778 76.1454 131.074 76.1477H128.602V80.2747C128.526 83.6713 128.744 87.068 129.253 90.427H112.26C112.72 87.0074 112.938 83.5595 112.911 80.1092V76.1256H89.5164C84.1423 76.1256 81.7919 76.2028 78.7793 76.4456V61.6145ZM112.988 52.8748C112.988 49.156 113.153 44.6206 113.484 40.9901C111.829 43.2964 110.593 44.9517 108.364 47.7546L96.2808 62.4422H112.955L112.988 52.8748Z" fill="#FF5F15"/>
<path d="M152.813 84.2363C150.179 81.6441 148.125 78.5223 146.788 75.0772C144.613 69.0141 143.522 62.6155 143.566 56.1743C143.566 47.5008 145.629 38.5183 148.774 33.3097C153.806 24.89 162.391 20.2664 172.786 20.2664C180.798 20.2664 187.816 22.992 192.848 27.9909C195.485 30.5803 197.54 33.7029 198.873 37.1499C201.06 43.2367 202.151 49.6627 202.095 56.1301C202.095 64.8036 200.032 73.8855 196.898 79.083C191.943 87.3371 183.27 91.9608 172.786 91.9608C164.698 91.9167 157.856 89.2683 152.813 84.2363ZM160.538 55.5453C160.538 70.3212 164.742 77.9132 172.919 77.9132C181.096 77.9132 185.135 70.4867 185.135 55.8432C185.09 41.6412 180.765 34.1925 172.786 34.1925C165.029 34.1925 160.493 42.0605 160.493 55.5122L160.538 55.5453Z" fill="#FF5F15"/>
<path d="M206.376 61.6145C210.095 57.4875 210.095 57.4875 214.3 52.5438L232.22 31.5773C235.019 28.5002 237.583 25.2172 239.89 21.7561H256.817C256.333 26.3043 256.112 30.8768 256.155 35.4505V62.2766H258.55C261.284 62.2508 264.013 62.0295 266.716 61.6145V76.6442C264.033 76.3112 261.331 76.1454 258.627 76.1477H256.155V80.2747C256.077 83.6717 256.298 87.069 256.817 90.427H239.813C240.278 87.0078 240.499 83.5598 240.475 80.1092V76.1256H217.114C211.751 76.1256 209.389 76.2028 206.376 76.4456V61.6145ZM240.585 52.8748C240.585 49.156 240.751 44.6206 241.082 40.9901C239.426 43.2964 238.19 44.9517 235.961 47.7546L223.878 62.4422H240.552L240.585 52.8748Z" fill="#FF5F15"/>
<path d="M79.5735 114.605C80.9633 114.377 82.3697 114.267 83.7779 114.273C85.4864 114.144 87.183 114.646 88.545 115.686C89.036 116.135 89.4235 116.685 89.6807 117.299C89.9379 117.912 90.0587 118.574 90.0347 119.239C90.0687 119.901 89.97 120.564 89.7445 121.187C89.519 121.81 89.1712 122.383 88.7216 122.87C88.026 123.515 87.2069 124.013 86.3136 124.334C85.4204 124.654 84.4714 124.791 83.5241 124.735C82.9351 124.756 82.3457 124.704 81.7695 124.58V131.389H79.5625L79.5735 114.605ZM81.7805 122.793C82.3736 122.93 82.9819 122.989 83.5903 122.969C86.2387 122.969 87.8498 121.689 87.8498 119.339C87.8498 116.988 86.2608 116.028 83.8441 116.028C83.1518 116.009 82.4596 116.068 81.7805 116.205V122.793Z" fill="white"/>
<path d="M93.5878 126.048L91.8222 131.389H89.6152L95.3755 114.406H98.0018L103.795 131.389H101.456L99.6461 126.048H93.5878ZM99.1053 124.338L97.4391 119.449C97.0639 118.345 96.8101 117.33 96.5563 116.348C96.3135 117.352 96.0266 118.39 95.7066 119.416L94.0403 124.338H99.1053Z" fill="white"/>
<path d="M118.836 130.627C117.161 131.232 115.397 131.549 113.616 131.565C112.456 131.677 111.286 131.533 110.187 131.144C109.088 130.755 108.088 130.129 107.257 129.312C106.426 128.495 105.785 127.505 105.377 126.413C104.97 125.321 104.806 124.153 104.899 122.991C104.899 117.926 108.397 114.229 114.091 114.229C115.542 114.194 116.985 114.46 118.328 115.013L117.799 116.801C116.617 116.283 115.336 116.034 114.047 116.072C109.909 116.072 107.216 118.643 107.216 122.892C107.216 127.14 109.809 129.756 113.771 129.756C114.767 129.808 115.764 129.65 116.695 129.292V124.238H113.241V122.473H118.836V130.627Z" fill="white"/>
<path d="M130.975 123.422H124.354V129.546H131.714V131.389H122.158V114.406H131.339V116.249H124.376V121.612H130.997L130.975 123.422Z" fill="white"/>
<path d="M139.935 131.389V114.406H142.33L147.77 122.991C148.903 124.765 149.924 126.608 150.827 128.509C150.628 126.302 150.573 124.183 150.573 121.535V114.428H152.647V131.411H150.44L145.044 122.793C143.873 120.967 142.812 119.073 141.866 117.121H141.789C141.921 119.272 141.965 121.314 141.965 124.128V131.389H139.935Z" fill="white"/>
<path d="M171.021 122.715C171.021 128.564 167.468 131.665 163.131 131.665C158.794 131.665 155.495 128.189 155.495 123.046C155.495 117.65 158.805 114.13 163.385 114.13C167.964 114.13 171.021 117.683 171.021 122.715ZM157.845 122.991C157.845 126.622 159.809 129.877 163.263 129.877C166.717 129.877 168.704 126.677 168.704 122.815C168.704 119.449 166.938 115.918 163.285 115.918C159.633 115.918 157.845 119.272 157.845 122.991Z" fill="white"/>
<path d="M176.461 116.271H171.296V114.406H183.876V116.271H178.679V131.389H176.472L176.461 116.271Z" fill="white"/>
<path d="M191.105 114.406H200.253V116.249H193.301V121.888H199.723V123.697H193.301V131.422H191.094L191.105 114.406Z" fill="white"/>
<path d="M217.886 122.715C217.886 128.564 214.333 131.665 210.007 131.665C205.516 131.665 202.371 128.189 202.371 123.046C202.371 117.65 205.682 114.13 210.25 114.13C214.819 114.13 217.886 117.683 217.886 122.715ZM204.711 122.991C204.711 126.622 206.675 129.877 210.129 129.877C213.583 129.877 215.569 126.677 215.569 122.815C215.569 119.449 213.803 115.918 210.151 115.918C206.498 115.918 204.711 119.272 204.711 122.991Z" fill="white"/>
<path d="M222.929 114.406V124.459C222.929 128.266 224.618 129.877 226.891 129.877C229.407 129.877 231.018 128.211 231.018 124.459V114.406H233.225V124.338C233.225 129.557 230.477 131.698 226.803 131.698C223.327 131.698 220.7 129.712 220.7 124.437V114.439L222.929 114.406Z" fill="white"/>
<path d="M237.043 131.389V114.406H239.438L244.878 122.991C246.012 124.762 247.029 126.605 247.923 128.509H247.979C247.78 126.302 247.725 124.183 247.725 121.535V114.428H249.788V131.411H247.581L242.196 122.793C241.021 120.969 239.96 119.075 239.018 117.121H238.941C239.062 119.272 239.118 121.314 239.118 124.128V131.389H237.043Z" fill="white"/>
<path d="M253.596 114.627C255.141 114.395 256.701 114.277 258.264 114.274C261.409 114.274 263.66 115.013 265.138 116.392C265.954 117.176 266.591 118.128 267.005 119.181C267.418 120.234 267.598 121.365 267.533 122.495C267.596 123.706 267.412 124.917 266.993 126.055C266.573 127.193 265.928 128.235 265.094 129.116C263.505 130.705 260.879 131.565 257.579 131.565C256.247 131.555 254.917 131.467 253.596 131.301V114.627ZM255.803 129.645C256.533 129.754 257.272 129.798 258.01 129.778C262.7 129.778 265.238 127.151 265.238 122.572C265.238 118.566 263.031 116.017 258.363 116.017C257.5 116.001 256.638 116.079 255.792 116.249L255.803 129.645Z" fill="white"/>
<path d="M67.9868 56.5383C68.9337 57.0098 69.7403 57.7213 70.3263 58.6019C70.8111 59.6367 71.0491 60.77 71.0215 61.9124L71.3525 69.03C71.5023 70.201 71.3621 71.3909 70.9442 72.495C70.7216 73.0397 70.3142 73.4886 69.7936 73.7631C69.273 74.0375 68.6724 74.1199 68.0972 73.9957C68.5197 75.3811 68.6564 76.8378 68.4989 78.2775C68.3415 79.7173 67.8932 81.11 67.1813 82.3713C66.8245 82.9026 66.5457 83.4823 66.3537 84.0928C66.262 84.8293 66.2993 85.5761 66.464 86.2998C66.7142 88.0851 66.5809 89.9033 66.0728 91.633C65.5647 93.3627 64.6937 94.9642 63.5177 96.3306C63.1581 96.7783 62.7161 97.1529 62.2155 97.4341C61.5591 97.714 60.8545 97.8639 60.141 97.8755L56.8967 98.1514C56.7363 98.204 56.5659 98.2191 56.3988 98.1956C56.2316 98.1721 56.0721 98.1105 55.9325 98.0157C55.7928 97.9208 55.6768 97.7952 55.5934 97.6484C55.5099 97.5017 55.4612 97.3378 55.4511 97.1693C52.9877 89.3553 51.8683 81.18 52.1406 72.9915C52.2682 68.8654 52.763 64.7589 53.6193 60.7206C54.1379 58.3591 55.1531 54.7617 57.6801 53.8017C60.9465 52.654 65.1619 54.9162 67.9868 56.5383Z" fill="#EEA886"/>
<path d="M281.095 56.5384C280.148 57.0098 279.341 57.7213 278.755 58.602C278.271 59.6368 278.033 60.77 278.06 61.9125L277.729 69.03C277.579 70.201 277.72 71.3909 278.137 72.495C278.36 73.0398 278.767 73.4887 279.288 73.7631C279.809 74.0375 280.409 74.1199 280.984 73.9958C280.563 75.3808 280.426 76.8367 280.581 78.276C280.737 79.7154 281.182 81.1084 281.889 82.3714C282.254 82.8997 282.537 83.4801 282.728 84.0928C282.821 84.8298 282.78 85.5775 282.607 86.2998C282.361 88.0859 282.498 89.9036 283.008 91.6328C283.518 93.362 284.389 94.9633 285.564 96.3306C285.924 96.7783 286.366 97.1529 286.866 97.4341C287.523 97.7141 288.227 97.864 288.941 97.8756L292.218 98.1956C292.379 98.2482 292.549 98.2633 292.716 98.2398C292.883 98.2163 293.043 98.1547 293.182 98.0598C293.322 97.965 293.438 97.8393 293.521 97.6926C293.605 97.5459 293.654 97.382 293.664 97.2134C296.127 89.3995 297.246 81.2242 296.974 73.0357C296.848 68.9089 296.35 64.8019 295.484 60.7648C294.977 58.4033 294.381 55.4459 291.876 54.4859C288.577 53.2831 283.92 54.9163 281.095 56.5384Z" fill="#EEA886"/>
<defs>
<linearGradient id="paint0_linear_101_98" x1="172.941" y1="238.561" x2="176.152" y2="329.644" gradientUnits="userSpaceOnUse">
<stop/>
<stop offset="0.95"/>
</linearGradient>
<linearGradient id="paint1_linear_101_98" x1="74.7067" y1="208.358" x2="71.4955" y2="81.3673" gradientUnits="userSpaceOnUse">
<stop stop-opacity="0"/>
<stop offset="0.99"/>
</linearGradient>
<linearGradient id="paint2_linear_101_98" x1="282.496" y1="190.857" x2="280.355" y2="111.195" gradientUnits="userSpaceOnUse">
<stop stop-opacity="0"/>
<stop offset="0.95"/>
</linearGradient>
<linearGradient id="paint3_linear_101_98" x1="170.965" y1="215.884" x2="175.964" y2="42.9875" gradientUnits="userSpaceOnUse">
<stop offset="0.9999" stop-color="white"/>
<stop offset="1"/>
</linearGradient>
</defs>
</svg>
