<svg width="28" height="28" viewBox="0 0 28 28" fill="none" xmlns="http://www.w3.org/2000/svg">
<path d="M21.3412 13.881V18.5781C21.3412 23.156 17.63 26.8672 13.0521 26.8672H10.2891C5.71114 26.8672 2 23.156 2 18.5781V13.881C2 13.4232 2.37112 13.0521 2.82891 13.0521H20.5122C20.9701 13.0521 21.3412 13.4232 21.3412 13.881Z" stroke="#FF5F15" stroke-width="2.07227" stroke-linecap="round" stroke-linejoin="round"/>
<path d="M14.4336 10.2891C14.4336 8.90756 15.4204 7.52605 17.394 7.52605C19.5739 7.52605 21.3411 5.75884 21.3411 3.57888V2.69077" stroke="#FF5F15" stroke-width="2.07227" stroke-linecap="round" stroke-linejoin="round"/>
<path d="M8.90756 10.2891V9.59831C8.90756 7.30935 10.7631 5.45378 13.0521 5.45378C14.5781 5.45378 15.8151 4.21673 15.8151 2.69076V2" stroke="#FF5F15" stroke-width="2.07227" stroke-linecap="round" stroke-linejoin="round"/>
<path d="M19.9596 13.0521H23.4134C25.3209 13.0521 26.8672 14.5984 26.8672 16.5059C26.8672 18.4133 25.3209 19.9596 23.4134 19.9596H21.3411" stroke="#FF5F15" stroke-width="2.07227" stroke-linecap="round" stroke-linejoin="round"/>
</svg>
