<svg width="34" height="38" viewBox="0 0 34 38" fill="none" xmlns="http://www.w3.org/2000/svg">
<path d="M22.5228 24.6658L20.7078 24.5348C20.7192 24.4042 20.7258 24.2521 20.7258 24.0985C20.7258 23.9449 20.7192 23.7928 20.7064 23.6424L20.7078 23.6622V23.5958C20.7078 21.3786 18.79 19.5813 16.4243 19.5813C14.0586 19.5813 12.1407 21.3786 12.1407 23.5958V23.6622C12.1293 23.7928 12.1227 23.9449 12.1227 24.0985C12.1227 24.2521 12.1293 24.4042 12.1421 24.5546L12.1407 24.5348L10.3257 24.6658C10.3117 24.5008 10.3036 24.3086 10.3036 24.1147C10.3036 23.9207 10.3117 23.7285 10.3274 23.5383L10.3257 23.5635C10.3257 20.4068 13.0562 17.8478 16.4243 17.8478C19.7924 17.8478 22.5228 20.4068 22.5228 23.5635C22.5369 23.7285 22.5449 23.9207 22.5449 24.1146C22.5449 24.3086 22.5369 24.5008 22.5211 24.691L22.5228 24.6658ZM27.5469 37.424H5.4868L0 23.7064L0.0108406 23.5261C0.208935 20.5106 2.86684 18.1353 6.11669 18.1353C9.36653 18.1353 12.0243 20.5106 12.2216 23.5098L12.2225 23.5261L10.4074 23.6264C10.2713 21.5032 8.40074 19.8296 6.1131 19.8296C3.88948 19.8296 2.05995 21.4108 1.83476 23.4389L1.8332 23.4563L6.74657 35.7229H26.2873L31.1879 23.4563C30.9611 21.4108 29.1316 19.8296 26.908 19.8296C24.6204 19.8296 22.7498 21.5032 22.6142 23.6153L22.6136 23.6265L20.7986 23.5261C20.9967 20.5106 23.6546 18.1354 26.9044 18.1354C30.1542 18.1354 32.812 20.5107 33.0093 23.5099L33.0102 23.5261L33.0211 23.7064L27.5469 37.424ZM12.1498 36.6755L10.4183 23.6826L12.2333 23.4716L13.9576 36.468L12.1498 36.6755ZM20.8911 36.6755L19.076 36.468L20.8004 23.4716L22.6009 23.6809L20.8911 36.6755ZM31.2913 20.4131H29.4762V17.096C29.4762 15.3559 28.2964 13.8741 26.6456 13.3149L26.6157 13.306L26.0095 13.0985V12.2139C26.0054 9.09637 23.31 6.57014 19.984 6.5663H19.5116V4.86501H19.9835C24.2068 4.8694 27.6487 7.99891 27.8185 11.9186L27.819 11.933C29.8892 12.8767 31.2908 14.8328 31.2912 17.0958V17.0959L31.2913 20.4131ZM3.5574 20.4131H1.74238V17.1811C1.74285 14.9194 3.14281 12.9643 5.17472 12.0349L5.21091 12.0199C5.33125 8.04729 8.79393 4.86932 13.0497 4.86516H13.522V6.56627H13.0501C9.72373 6.57014 7.02827 9.09633 7.02418 12.2135V13.1903L6.41792 13.391C4.73724 13.9592 3.55748 15.4409 3.5574 17.1811V20.4131ZM16.5168 0C18.9326 0 20.8911 1.83546 20.8911 4.09965C20.8911 6.36383 18.9327 8.19929 16.5168 8.19929C14.101 8.19929 12.1426 6.36383 12.1426 4.09965C12.1457 1.83666 14.1022 0.00292375 16.5165 0H16.5168ZM16.5168 6.49818C17.9302 6.49818 19.0761 5.42432 19.0761 4.09961C19.0761 2.77489 17.9302 1.70115 16.5167 1.70115C15.1033 1.70115 13.9575 2.77497 13.9575 4.09965C13.9596 5.42356 15.1041 6.49624 16.5165 6.49822H16.5167L16.5168 6.49818ZM21.7078 13.0644H18.2411V11.3633H21.7078V13.0644ZM14.7925 14.6974H11.3258V12.9963H14.7925V14.6974Z" fill="#FF5F15"/>
</svg>
