<svg width="66" height="64" viewBox="0 0 66 64" fill="none" xmlns="http://www.w3.org/2000/svg">
<path d="M33.507 45.1064C19.0062 45.1064 6.92226 40.7344 4.1759 34.9762C9.2292 50.0116 6.15328 63.9808 33.507 63.9808C60.8607 63.9808 57.7848 50.0116 62.8381 34.9762C60.0918 40.7344 48.0078 45.1064 33.507 45.1064Z" fill="#3E4347"/>
<path d="M19.995 19.7274C35.4844 15.5686 71.0772 21.8601 63.2776 36.1491C67.5619 40.8411 69.0998 45.8529 48.6669 45.533C17.2486 52.6775 -8.67701 37.8553 2.74784 26.6586C0.00147798 21.2203 6.04347 18.4478 19.995 19.7274Z" fill="#6F7980"/>
<path d="M33.507 44.4666C47.2388 44.4666 58.6637 40.3079 61.3002 34.8695C61.5199 34.3363 61.6297 33.8032 61.8494 33.27C61.8494 32.9501 61.9593 32.7368 61.9593 32.4169C61.9593 25.8056 49.2162 20.4738 33.6169 20.4738C18.0176 20.4738 5.27448 25.8056 5.27448 32.4169C5.27448 32.7368 5.27447 32.9501 5.38433 33.27C5.49418 33.8032 5.71389 34.3363 5.9336 34.8695C8.3504 40.3079 19.7752 44.4666 33.507 44.4666Z" fill="#3E4347"/>
<path d="M33.5071 44.4666C47.2389 44.4666 58.6637 40.3079 61.3002 34.8695C61.3002 34.6562 61.4101 34.5496 61.4101 34.3363C59.1032 28.6847 47.4586 24.4193 33.3973 24.4193C19.3359 24.4193 7.69134 28.6847 5.3844 34.3363C5.49425 34.5496 5.49425 34.6562 5.49425 34.8695C8.35047 40.3079 19.7753 44.4666 33.5071 44.4666Z" fill="#FBBF67"/>
<path d="M37.3519 30.2842C31.8592 30.1776 25.1581 34.443 20.6541 34.1231C13.184 33.5899 20.8738 37.1089 26.1468 37.1089C29.6621 37.1089 32.0789 34.0165 33.9464 32.7368C36.5829 31.1373 43.0643 30.3909 37.3519 30.2842Z" fill="#D33B23"/>
<path d="M21.0935 26.7653C19.6654 22.9264 11.4263 29.2179 18.457 30.6041C19.5555 30.8174 22.3019 30.1776 21.0935 26.7653ZM37.0224 38.815C35.2647 34.1231 25.0482 41.9074 33.8366 43.5069C35.1548 43.7202 38.5603 42.9737 37.0224 38.815ZM38.8899 25.379C37.2421 21.5402 27.0256 27.8316 35.7041 29.2179C36.9125 29.3245 40.318 28.6847 38.8899 25.379ZM55.6976 29.5378C55.0385 25.379 41.9658 27.725 50.9739 32.097C52.2921 32.7368 56.2469 33.27 55.6976 29.5378Z" fill="#FF8736"/>
<path d="M14.3924 33.27C13.184 31.6705 11.4264 29.5378 10.7672 30.6041C9.77854 32.097 9.44898 35.0828 10.218 35.1894C15.7107 36.2558 15.2713 34.5496 14.3924 33.27ZM44.6024 30.2842C42.625 31.1373 41.4166 30.4975 40.5377 31.7771C38.4505 34.6562 45.591 35.616 46.9093 33.9098C47.898 32.7368 45.9206 29.751 44.6024 30.2842ZM46.2502 37.4287C44.8221 36.7889 45.1516 38.9216 42.9545 37.2155C41.4166 36.0425 38.121 39.0283 40.318 41.0543C42.7348 43.2936 43.394 41.1609 44.3826 41.3742C46.4699 41.6941 50.0951 39.0283 46.2502 37.4287ZM22.0822 38.0685C20.764 36.7889 18.6767 40.4145 19.4457 41.3742C21.0935 43.5069 27.0257 43.0804 28.5636 41.4809C30.541 39.5614 25.268 41.0543 22.0822 38.0685Z" fill="#89664C"/>
<path d="M17.0288 37.0022C17.0288 37.0022 17.1387 38.2818 17.3584 38.815C15.9303 38.2818 15.9303 35.8292 15.9303 35.8292C15.9303 35.8292 14.9416 36.3624 15.0515 37.3221C13.5135 36.0425 12.1953 36.6823 12.1953 36.6823C12.1953 36.6823 14.1726 37.7487 14.5022 38.4951C13.4036 38.6017 12.7445 38.9216 12.3051 39.7747C12.3051 39.7747 14.5022 38.7084 16.15 39.4548C15.4909 39.988 15.8204 41.2676 15.8204 41.2676C18.4569 38.6017 20.1048 40.9477 21.3132 40.3079C20.3245 39.0283 18.8964 38.815 18.8964 38.815C18.3471 37.7487 17.0288 37.0022 17.0288 37.0022ZM28.8931 26.552C27.5749 26.3388 26.2566 26.9786 26.2566 26.9786C26.2566 26.9786 27.465 27.5117 28.0143 27.725C26.8059 28.6847 24.6088 27.4051 24.6088 27.4051C24.6088 27.4051 24.6088 28.4714 25.4876 28.898C23.6201 29.5378 23.4004 31.0307 23.4004 31.0307C23.4004 31.0307 25.3778 29.9643 26.1467 30.071C25.5975 31.0307 25.5975 31.7771 26.2566 32.5236C26.2566 32.5236 26.4763 30.1776 28.0143 29.2179C28.1241 30.071 29.4424 30.3909 29.4424 30.3909C28.4537 26.8719 31.4198 26.6587 31.4198 25.379C29.8818 25.379 28.8931 26.552 28.8931 26.552ZM54.4892 36.1491C55.0384 35.616 57.3454 35.2961 57.3454 35.2961C57.3454 35.2961 56.3567 34.2297 54.3793 34.7629C54.8187 33.9098 54.1596 33.0567 54.1596 33.0567C54.1596 33.0567 53.1709 35.2961 51.6329 35.2961C52.0724 34.7629 52.6216 33.6965 52.6216 33.6965C52.6216 33.6965 51.0837 34.0164 50.2048 34.9762C50.2048 34.9762 48.7767 34.5496 47.4585 35.4027C48.2275 36.469 50.7541 34.8695 52.0724 38.2818C52.0724 38.2818 52.8413 37.2155 52.5118 36.469C54.2694 36.3624 55.9173 38.1752 55.9173 38.1752C55.9173 37.2155 55.4778 36.6823 54.4892 36.1491Z" fill="#699635"/>
<path opacity="0.6" d="M34.3859 10.0237C30.3213 5.97154 33.0676 0 33.0676 0C33.0676 0 24.499 7.89096 29.8818 13.3293C36.1435 19.6208 33.0676 23.4596 33.0676 23.4596C33.0676 23.4596 40.7574 16.4217 34.3859 10.0237ZM22.3019 13.6492C19.226 10.7701 21.3132 6.39808 21.3132 6.39808C21.3132 6.39808 14.9417 12.1563 19.0063 16.1018C23.73 20.6871 21.3132 23.4596 21.3132 23.4596C21.3132 23.4596 27.0256 18.3412 22.3019 13.6492ZM46.4698 13.6492C43.3939 10.7701 45.4811 6.39808 45.4811 6.39808C45.4811 6.39808 39.1096 12.1563 43.1742 16.1018C47.8979 20.6871 45.4811 23.4596 45.4811 23.4596C45.4811 23.4596 51.1936 18.3412 46.4698 13.6492Z" fill="#A6AEB0"/>
</svg>
