<svg width="51" height="32" viewBox="0 0 51 32" fill="none" xmlns="http://www.w3.org/2000/svg">
<path d="M15.7076 0C6.93 0.0583524 -0.0573917 7.17735 0.000355365 16.1053C0.000355365 24.7414 7.16099 31.9188 15.7653 31.8604C24.6006 31.8604 31.588 24.508 31.5303 15.7552C31.4148 7.06065 24.3696 0 15.7076 0ZM15.7653 26.5504C9.8751 26.5504 5.25534 21.8238 5.25534 15.8719C5.25534 10.0366 9.93285 5.31007 15.7653 5.36842C21.5978 5.36842 26.2753 10.095 26.2175 15.9302C26.2175 21.8238 21.54 26.5504 15.7653 26.5504ZM50.4713 5.01831C50.4135 2.91762 48.9121 1.40046 46.9487 1.34211C44.9853 1.28375 43.4262 2.74256 43.3107 4.7849C43.1952 6.24371 43.2529 7.70252 43.2529 9.16133C43.3107 10.4451 43.8304 11.4954 44.8698 12.1957C45.2741 12.4291 45.3318 12.6625 45.3318 13.0709V28.8261C45.3318 29.468 45.5628 30.0515 46.1403 30.3433C47.2952 30.9268 48.4501 30.1682 48.4501 28.7678C48.4501 23.516 48.4501 18.2643 48.3924 13.0126C48.3924 12.6625 48.5079 12.4291 48.8544 12.1957C49.8361 11.5538 50.3558 10.6785 50.4135 9.51145C50.4713 8.69451 50.4713 7.87758 50.4713 7.06065C50.4713 6.36042 50.529 5.71854 50.4713 5.01831ZM40.8853 1.34211C40.4811 1.34211 40.3078 1.63387 40.3078 2.04234V7.58582H39.3261V2.21739C39.3261 1.80893 39.2684 1.40046 38.8064 1.34211C38.2289 1.34211 38.2867 1.80893 38.2867 2.21739V6.88559C38.2867 7.119 38.2289 7.35241 38.2289 7.52746H37.2472V2.15904C37.2472 1.75057 37.1895 1.34211 36.7275 1.34211C36.2655 1.34211 36.2078 1.75057 36.2078 2.10069V7.58582H35.1683V2.15904C35.1683 1.80893 35.1106 1.34211 34.6486 1.34211C34.1866 1.34211 34.1289 1.75057 34.1289 2.15904C34.1289 4.43479 34.0711 6.71053 34.1289 8.98628C34.1289 10.3284 34.6486 11.4954 35.8035 12.1957C36.15 12.4291 36.2078 12.6625 36.2078 13.0126V28.9428C36.2078 29.8181 36.7852 30.46 37.5937 30.5183C38.3444 30.635 39.0951 30.1099 39.2684 29.2929C39.3261 29.0012 39.3261 28.7094 39.3261 28.4176V13.1293C39.3261 12.6625 39.3839 12.3707 39.7881 12.1373C40.7698 11.4954 41.2895 10.5034 41.3473 9.33639V2.04234C41.3473 1.69222 41.2318 1.40046 40.8853 1.34211ZM15.7076 6.0103C10.3371 6.0103 5.89056 10.4451 5.89056 15.8719C5.89056 21.4153 10.2793 25.9085 15.7076 25.9085C21.078 25.9085 25.5823 21.4153 25.5823 16.0469C25.5823 10.4451 21.2513 6.0103 15.7076 6.0103Z" fill="#FF5F15"/>
</svg>
