<svg xmlns="http://www.w3.org/2000/svg" width="15.998" height="14" viewBox="0 0 15.998 14">
  <g id="images" transform="translate(-0.002 -1)">
    <path id="Path_1" data-name="Path 1" d="M4.5,9A1.5,1.5,0,1,0,3,7.5,1.5,1.5,0,0,0,4.5,9Z" fill="#ff5f15"/>
    <path id="Path_2" data-name="Path 2" d="M14,13a2,2,0,0,1-2,2H2a2,2,0,0,1-2-2V5A2,2,0,0,1,2,3,2,2,0,0,1,4,1H14a2,2,0,0,1,2,2v8a2,2,0,0,1-2,2ZM14,2H4A1,1,0,0,0,3,3h9a2,2,0,0,1,2,2v7a1,1,0,0,0,1-1V3A1,1,0,0,0,14,2ZM2,4A1,1,0,0,0,1,5v8l2.646-2.354a.5.5,0,0,1,.63-.062l2.66,1.773,3.71-3.71a.5.5,0,0,1,.577-.094L13,10.5V5a1,1,0,0,0-1-1H2Z" fill="#ff5f15"/>
  </g>
</svg>
