<svg width="28" height="32" viewBox="0 0 28 32" fill="none" xmlns="http://www.w3.org/2000/svg">
<path d="M20.3263 10.8401C19.8032 10.3642 19.7534 9.51811 20.2018 8.93644L25.0841 2.96118C25.5324 2.40595 26.3544 2.32664 26.8775 2.82898C27.4007 3.30489 27.4505 4.17738 27.0021 4.73261L22.1198 10.7079C21.6465 11.2631 20.8494 11.3424 20.3263 10.8401Z" fill="#44B3E6"/>
<path opacity="0.2" d="M26.0555 3.0405C26.2299 3.0405 26.4292 3.11982 26.5537 3.25202C26.8775 3.54285 26.9025 4.07163 26.6285 4.41534L21.7212 10.3642C21.5718 10.5492 21.3725 10.655 21.1483 10.655C20.974 10.655 20.7747 10.5757 20.6501 10.4435C20.3263 10.1527 20.3014 9.62387 20.5754 9.3066L25.4577 3.33133C25.6072 3.14626 25.8313 3.0405 26.0555 3.0405ZM26.0555 2.51172C25.7068 2.51172 25.3581 2.67035 25.109 2.98762L20.2018 8.96289C19.7534 9.51811 19.8032 10.3642 20.3263 10.8665C20.5754 11.078 20.8743 11.1838 21.1483 11.1838C21.4971 11.1838 21.8458 11.0252 22.0949 10.7079L26.9772 4.73261C27.4256 4.17739 27.3757 3.33133 26.8526 2.82899C26.6285 2.61748 26.3295 2.51172 26.0555 2.51172Z" fill="#434343"/>
<path d="M20.5754 28.8452C20.5754 30.4315 17.1379 31.7271 12.9281 31.7271C8.71839 31.7271 5.28085 30.4315 5.28085 28.8452C5.28085 28.6866 5.30576 28.2107 5.30576 28.2107C5.30576 28.2107 9.16676 25.9633 12.953 25.9633C16.8389 25.9633 20.6003 28.2635 20.6003 28.2635C20.6003 28.2635 20.5754 28.713 20.5754 28.8452Z" fill="#3D82C4"/>
<path d="M12.9281 31.1719C17.1516 31.1719 20.5754 29.8816 20.5754 28.29C20.5754 26.6984 17.1516 25.4081 12.9281 25.4081C8.70466 25.4081 5.28085 26.6984 5.28085 28.29C5.28085 29.8816 8.70466 31.1719 12.9281 31.1719Z" fill="url(#paint0_radial_18_369)"/>
<path opacity="0.2" d="M12.9281 25.9369C17.3621 25.9369 20.0772 27.3117 20.0772 28.29V28.3164V28.3429V28.3957V28.8717C20.0772 29.8499 17.3621 31.2247 12.9281 31.2247C8.4942 31.2247 5.77905 29.8499 5.77905 28.8717C5.77905 28.7923 5.77905 28.6337 5.77905 28.4751C5.77905 28.4486 5.77905 28.4222 5.77905 28.3693C5.77905 28.3429 5.77905 28.3164 5.77905 28.29C5.75414 27.3117 8.4942 25.9369 12.9281 25.9369ZM12.9281 25.4081C8.69348 25.4081 5.28085 26.7036 5.28085 28.29V28.4486V28.8452C5.28085 30.4316 8.71839 31.7271 12.9281 31.7271C17.1379 31.7271 20.5754 30.4316 20.5754 28.8452C20.5754 28.7659 20.5754 28.5279 20.5754 28.3693C20.5754 28.3429 20.5754 28.3164 20.5754 28.29C20.5754 26.7036 17.1379 25.4081 12.9281 25.4081Z" fill="#434343"/>
<path d="M14.1487 19.9087H11.7823C11.7823 19.9087 12.1808 25.4609 10.0386 27.5761C9.39096 28.2106 10.1881 28.5808 10.6614 28.713C11.2343 28.898 12.0563 29.0038 12.978 29.0038C13.8996 29.0038 14.7216 28.898 15.2946 28.713C15.7429 28.5543 16.3906 27.9462 15.9173 27.5761C13.8249 25.9633 14.1487 19.9087 14.1487 19.9087Z" fill="url(#paint1_radial_18_369)"/>
<path opacity="0.2" d="M13.6256 20.4375C13.6256 21.0456 13.6256 22.0767 13.7502 23.1872C13.9993 25.5402 14.5971 27.1266 15.5187 27.9198C15.444 28.0255 15.2946 28.1313 15.1451 28.1842C14.5971 28.3692 13.8 28.4486 12.978 28.4486C12.1559 28.4486 11.3588 28.3428 10.8108 28.1842C10.5617 28.1049 10.4372 28.0255 10.3624 27.9727C10.3624 27.9462 10.3874 27.9462 10.4123 27.9198C12.3054 26.069 12.3801 21.9181 12.3552 20.411L13.6256 20.4375ZM14.1487 19.9087H11.7823C11.7823 19.9087 12.1808 25.4609 10.0386 27.5761C9.39096 28.2106 10.1881 28.5808 10.6614 28.713C11.2343 28.898 12.0563 29.0038 12.978 29.0038C13.8996 29.0038 14.7216 28.898 15.2946 28.713C15.7429 28.5543 16.3906 27.9462 15.9173 27.5761C13.8249 25.9633 14.1487 19.9087 14.1487 19.9087Z" fill="#434343"/>
<path d="M25.3331 12.0298C25.657 12.162 25.8562 12.4793 25.8313 12.823C25.657 15.2025 24.2122 24.562 12.953 24.562C1.69384 24.562 0.224167 15.2025 0.0248898 12.823C-1.98428e-05 12.4793 0.199258 12.162 0.523084 12.0298C2.09239 11.316 7.04942 9.35947 12.9281 9.35947C18.8068 9.35947 23.7638 11.316 25.3331 12.0298Z" fill="url(#paint2_radial_18_369)"/>
<path d="M12.9281 17.1855C20.0681 17.1855 25.8563 15.1259 25.8563 12.5851C25.8563 10.0444 20.0681 7.98468 12.9281 7.98468C5.78812 7.98468 0 10.0444 0 12.5851C0 15.1259 5.78812 17.1855 12.9281 17.1855Z" fill="url(#paint3_radial_18_369)"/>
<path opacity="0.2" d="M12.9282 8.22259C16.0917 8.22259 19.305 8.83069 21.7711 9.88826C24.0628 10.8665 25.0841 11.977 25.0841 12.5851V12.7173V12.7437C24.8848 15.3347 23.4151 23.7424 12.9282 23.7424C2.46608 23.7424 0.971501 15.3347 0.772224 12.7437C0.772224 12.6644 0.747314 12.5851 0.722404 12.5057C0.822043 11.8712 1.84334 10.8401 4.03539 9.88826C6.52636 8.83069 9.76462 8.22259 12.9282 8.22259ZM12.9282 7.42941C5.80398 7.42941 0.0249329 10.3377 0.0249329 12.5851C0.0249329 12.7437 0.0747522 12.6908 0.0747522 12.7966C0.24912 15.1761 1.69388 24.5356 12.9531 24.5356C24.2122 24.5356 25.657 15.1761 25.8314 12.7966C25.8314 12.6644 25.8314 12.7173 25.8314 12.5851C25.8314 10.3377 20.0523 7.42941 12.9282 7.42941Z" fill="#434343"/>
<path d="M24.9097 15.8635C25.0841 15.2818 25.0841 14.568 24.9595 14.2243C24.9097 14.0656 24.835 13.7748 24.7353 13.4311C24.5859 13.669 24.4115 13.8806 24.1375 14.1185C22.3938 15.5991 18.0346 16.5774 12.9281 16.5774C7.72202 16.5774 3.26318 15.5462 1.59423 13.9863C1.29532 13.7219 1.09604 13.4311 0.996399 13.1403C1.32022 11.8976 2.0177 10.7343 2.0177 10.7343C2.51589 9.7296 3.26318 8.64559 4.20975 7.61446C4.58339 7.19143 5.00686 6.79485 5.45523 6.4247C5.67942 6.23962 5.90361 6.05455 6.1527 5.86947C6.27725 5.79016 6.4018 5.6844 6.52635 5.60508C6.6509 5.52576 6.77545 5.42001 6.89999 5.34069C6.94981 5.28781 7.02454 5.26137 7.09927 5.20849C7.4231 4.99698 7.74692 4.8119 8.07075 4.65327C8.14548 4.62683 8.1953 4.57395 8.27003 4.54751C8.39458 4.46819 8.54403 4.41532 8.69349 4.36244C8.76822 4.336 8.84295 4.30956 8.89277 4.25668C9.16678 4.12448 9.46569 4.01873 9.76461 3.93941C9.83934 3.91297 9.91407 3.88653 9.9888 3.86009C10.9354 3.56926 11.9567 3.38419 13.0029 3.38419C16.266 3.38419 19.1307 5.02342 21.1732 7.0328C21.2978 7.13856 21.3974 7.24431 21.522 7.37651C21.5718 7.42939 21.6216 7.48227 21.6714 7.56158C21.9454 7.85242 22.1945 8.14325 22.4187 8.43408C22.5184 8.53984 22.5931 8.67203 22.6927 8.77779C22.7426 8.83067 22.7675 8.90999 22.8173 8.96286C22.892 9.09506 22.9917 9.20082 23.0664 9.30657C23.2158 9.54453 23.3653 9.78248 23.5148 10.0204C23.5895 10.1262 23.6393 10.2584 23.714 10.3641C23.7389 10.417 23.7639 10.4699 23.8137 10.5492C23.9631 10.84 24.0877 11.1044 24.1873 11.3688C24.2122 11.4217 24.2371 11.4746 24.2371 11.5275C24.287 11.6332 24.3119 11.739 24.3368 11.8447C24.3617 11.8976 24.3866 11.9769 24.3866 12.0298C24.4115 12.0827 24.4364 12.162 24.4364 12.2149C24.4613 12.2678 24.4862 12.3471 24.4862 12.4C24.5111 12.5057 24.5361 12.6115 24.5859 12.6908C24.5859 12.7172 24.5859 12.7172 24.6108 12.7437C24.6357 12.8494 24.6606 12.9287 24.6855 13.0345V13.0874C24.7104 13.1931 24.7353 13.2725 24.7602 13.3518C24.8599 13.6955 24.9346 13.9863 24.9844 14.145C25.0841 14.568 25.0841 15.2818 24.9097 15.8635Z" fill="url(#paint4_radial_18_369)"/>
<mask id="mask0_18_369" style="mask-type:luminance" maskUnits="userSpaceOnUse" x="0" y="3" width="26" height="19">
<path d="M24.9595 14.1978C24.835 13.8541 24.6108 12.7437 24.2869 11.8712C23.2906 8.56626 18.757 3.41061 12.953 3.41061C7.77182 3.41061 3.56208 7.53513 1.99277 10.7607C0.423461 13.9863 0.822015 12.6908 0.822015 14.2243C0.822015 15.7577 0.921654 16.3923 1.32021 17.0268C1.79349 17.82 2.21696 18.2166 3.11371 18.4017C3.46244 18.481 3.71154 18.8247 3.91082 19.1155C4.85739 20.6226 5.70431 20.8076 7.24872 20.8605C7.87146 20.8869 9.34113 21.1249 9.61514 21.31C10.0137 21.5479 10.5119 21.6801 11.0599 21.6801C11.4335 21.6801 11.7823 21.6272 12.0812 21.495C12.5296 21.3364 13.0278 21.3364 13.501 21.495C13.9245 21.6537 14.4476 21.7066 14.9707 21.6537C15.5436 21.6008 16.0667 21.4422 16.4653 21.1778C16.9137 20.8869 17.4866 20.8341 17.9848 20.9927C18.4332 21.1249 18.9563 21.1513 19.4794 21.0456C20.1768 20.8869 20.7498 20.5168 21.0985 20.0409C21.3974 19.6443 21.8209 19.3535 22.3191 19.3006C22.5184 19.2742 22.7176 19.2213 22.9169 19.1155C23.3902 18.904 23.6144 18.3223 23.7389 17.82C23.8386 17.3705 24.0378 16.9211 24.4115 16.6567C25.0591 16.1279 25.1588 14.7795 24.9595 14.1978Z" fill="white"/>
</mask>
<g mask="url(#mask0_18_369)">
<path d="M2.86464 13.7484C3.63684 13.6426 4.78269 12.3207 5.55489 12.3735C6.47655 12.4264 7.24875 13.1403 7.97113 13.7748C8.69351 14.4094 10.0137 15.414 10.9354 15.229C12.6791 14.8588 13.5758 13.0345 15.3195 12.6379C16.0668 12.4529 17.8603 13.5897 18.5577 13.9863C20.426 15.0703 21.1484 14.3829 21.4722 13.484C21.6715 12.9023 21.8956 11.8448 22.4187 11.6068C22.9419 11.3688 24.6357 13.0081 24.6357 12.8759C24.2621 6.50403 18.9563 2.45883 13.1523 2.48527C7.72203 2.48527 1.79353 6.16032 1.39497 11.9769C1.37006 12.0034 1.44479 13.9599 2.86464 13.7484Z" fill="url(#paint5_radial_18_369)"/>
</g>
<path opacity="0.2" d="M24.7353 13.4047C24.7104 13.3253 24.6855 13.2196 24.6606 13.1403C24.6606 13.1138 24.6606 13.1138 24.6606 13.0874C24.6357 12.9816 24.6108 12.9023 24.5859 12.7966C24.5859 12.7701 24.5859 12.7701 24.561 12.7437C24.5361 12.6379 24.5112 12.5322 24.4613 12.4528C24.4364 12.4 24.4115 12.3207 24.4115 12.2678C24.3866 12.2149 24.3617 12.1356 24.3617 12.0827C24.3368 12.0298 24.3119 11.9505 24.287 11.8976C24.2621 11.7919 24.2122 11.6861 24.1873 11.5804C24.1624 11.5275 24.1375 11.4746 24.1375 11.4217C24.0379 11.1573 23.9133 10.8665 23.7639 10.6021C23.739 10.5492 23.7141 10.4963 23.6642 10.417C23.6144 10.3113 23.5397 10.1791 23.465 10.0733C23.3404 9.83537 23.1909 9.59741 23.0166 9.35946C22.9419 9.2537 22.8422 9.12151 22.7675 9.01575C22.7177 8.96287 22.6678 8.90999 22.6429 8.83068C22.5433 8.72492 22.4686 8.59272 22.3689 8.48697C22.1447 8.19613 21.8956 7.9053 21.6216 7.61447C21.5718 7.56159 21.522 7.50871 21.4722 7.4294C21.3725 7.32364 21.248 7.19144 21.1234 7.08569C19.0559 5.0763 16.1913 3.43707 12.9531 3.43707C11.9069 3.43707 10.8856 3.59571 9.93899 3.91298C9.86426 3.93942 9.78953 3.96586 9.7148 3.9923C9.41589 4.09805 9.14188 4.20381 8.84297 4.30957C8.76824 4.33601 8.69351 4.36245 8.64369 4.41532C8.49423 4.4682 8.36968 4.54752 8.22022 4.6004C8.14549 4.62684 8.09568 4.67972 8.02095 4.70616C7.67221 4.89123 7.34839 5.0763 7.04947 5.26138C6.97474 5.31426 6.92492 5.3407 6.85019 5.39358C6.72564 5.47289 6.60109 5.55221 6.47654 5.65797C6.352 5.73729 6.22745 5.84304 6.1029 5.92236C5.87871 6.10743 5.62962 6.29251 5.40543 6.47758C4.95705 6.84773 4.53359 7.27076 4.15994 7.66735C3.21338 8.69848 2.46609 9.78249 1.96789 10.7872C1.4697 11.7919 1.27042 11.9505 0.946594 13.1931C1.07114 13.484 1.27042 13.7748 1.54443 14.0392C1.64407 13.0345 2.29172 11.7654 2.56572 11.2631C2.59063 11.2366 2.61554 11.2102 2.61554 11.1573C3.96067 8.38121 7.84658 4.23025 12.9032 4.23025C15.9671 4.23025 18.4083 5.76373 19.9029 7.05925C21.9704 8.85712 23.1411 10.8665 23.5397 12.162V12.1885C23.7639 12.823 23.9133 13.4311 24.0379 13.8806C24.0628 13.9863 24.0877 14.0656 24.1126 14.145C24.4115 13.8806 24.6108 13.6426 24.7353 13.4047ZM24.287 16.7624C24.3368 16.7096 24.3617 16.6831 24.4115 16.6567L24.4863 16.5774C24.4613 16.6038 24.4364 16.6302 24.4115 16.6567C24.3866 16.6831 24.3368 16.7096 24.287 16.7624ZM22.344 19.2742C21.9206 19.3271 21.522 19.565 21.248 19.8823C21.522 19.565 21.9206 19.3535 22.344 19.2742C22.5433 19.2477 22.7426 19.1949 22.9418 19.0891C23.0664 19.0362 23.166 18.9569 23.2408 18.8511C23.1411 18.9305 23.0415 19.0098 22.9418 19.0627C22.7426 19.1949 22.5433 19.2477 22.344 19.2742ZM19.5043 21.0456C19.5292 21.0456 19.5541 21.0456 19.579 21.0192C19.5541 21.0192 19.5292 21.0192 19.5043 21.0456ZM16.9635 20.9927C17.1379 20.9398 17.3123 20.9134 17.4617 20.9134C17.6361 20.9134 17.8354 20.9398 18.0097 20.9927C18.0596 21.0192 18.1343 21.0192 18.209 21.0456C18.1343 21.0192 18.0845 21.0192 18.0097 20.9927C17.661 20.887 17.2873 20.887 16.9635 20.9927ZM14.9707 21.6537C14.9209 21.6537 14.8462 21.6537 14.7964 21.6537C14.8711 21.6801 14.9209 21.6801 14.9707 21.6537C15.5437 21.6008 16.0668 21.4422 16.4653 21.1778C16.6148 21.0985 16.7642 21.0192 16.9386 20.9663C16.7642 21.0192 16.6148 21.072 16.4653 21.1778C16.0668 21.4422 15.5437 21.6008 14.9707 21.6537ZM14.622 21.6801H14.7964C14.5224 21.6801 14.2733 21.6801 14.0242 21.6273C14.2235 21.6537 14.4227 21.6801 14.622 21.6801ZM12.0812 21.4951C11.7823 21.6008 11.4336 21.6801 11.0599 21.6801C10.5119 21.6801 10.0137 21.5479 9.61517 21.31C9.31625 21.1514 7.87149 20.887 7.24875 20.887C6.05308 20.8605 5.25597 20.7283 4.53359 19.9616C5.28088 20.7283 6.05308 20.8605 7.24875 20.887C7.87149 20.9134 9.34116 21.1514 9.61517 21.31C10.0137 21.5479 10.5119 21.6801 11.0599 21.6801C11.4336 21.6801 11.7823 21.6008 12.0812 21.4951C12.3054 21.4158 12.5296 21.3629 12.7787 21.3629C13.0278 21.3629 13.2769 21.4158 13.5011 21.4951C13.6754 21.5479 13.8498 21.6008 14.0242 21.6273C13.8249 21.6008 13.6505 21.5479 13.5011 21.4951C13.0527 21.3364 12.5545 21.3364 12.0812 21.4951ZM1.76861 17.6878C2.11735 18.0844 2.491 18.2959 3.11374 18.4281C2.491 18.2695 2.11735 18.058 1.76861 17.6878Z" fill="#434343"/>
<g opacity="0.4">
<path d="M4.88233 13.2196C5.29505 13.2196 5.62962 12.8644 5.62962 12.4264C5.62962 11.9883 5.29505 11.6332 4.88233 11.6332C4.46961 11.6332 4.13504 11.9883 4.13504 12.4264C4.13504 12.8644 4.46961 13.2196 4.88233 13.2196Z" fill="#FF5F15"/>
<path d="M6.92489 14.568C7.20004 14.568 7.42308 14.3312 7.42308 14.0392C7.42308 13.7472 7.20004 13.5104 6.92489 13.5104C6.64975 13.5104 6.4267 13.7472 6.4267 14.0392C6.4267 14.3312 6.64975 14.568 6.92489 14.568Z" fill="#FF5F15"/>
<path d="M14.4975 12.5321C14.7726 12.5321 14.9957 12.2954 14.9957 12.0034C14.9957 11.7113 14.7726 11.4746 14.4975 11.4746C14.2223 11.4746 13.9993 11.7113 13.9993 12.0034C13.9993 12.2954 14.2223 12.5321 14.4975 12.5321Z" fill="#FF5F15"/>
<path d="M9.06716 9.54451C9.34231 9.54451 9.56536 9.30776 9.56536 9.01572C9.56536 8.72368 9.34231 8.48694 9.06716 8.48694C8.79202 8.48694 8.56897 8.72368 8.56897 9.01572C8.56897 9.30776 8.79202 9.54451 9.06716 9.54451Z" fill="#FF5F15"/>
<path d="M15.2697 7.19148C15.5448 7.19148 15.7679 6.95474 15.7679 6.6627C15.7679 6.37066 15.5448 6.13391 15.2697 6.13391C14.9945 6.13391 14.7715 6.37066 14.7715 6.6627C14.7715 6.95474 14.9945 7.19148 15.2697 7.19148Z" fill="#FF5F15"/>
<path d="M18.508 14.8852C18.9207 14.8852 19.2553 14.5301 19.2553 14.0921C19.2553 13.654 18.9207 13.2989 18.508 13.2989C18.0953 13.2989 17.7607 13.654 17.7607 14.0921C17.7607 14.5301 18.0953 14.8852 18.508 14.8852Z" fill="#FF5F15"/>
<path d="M21.796 12.5322C22.2087 12.5322 22.5433 12.1771 22.5433 11.739C22.5433 11.3009 22.2087 10.9458 21.796 10.9458C21.3833 10.9458 21.0487 11.3009 21.0487 11.739C21.0487 12.1771 21.3833 12.5322 21.796 12.5322Z" fill="#FF5F15"/>
<path d="M18.5827 9.80895C18.9954 9.80895 19.33 9.45383 19.33 9.01577C19.33 8.57771 18.9954 8.2226 18.5827 8.2226C18.17 8.2226 17.8354 8.57771 17.8354 9.01577C17.8354 9.45383 18.17 9.80895 18.5827 9.80895Z" fill="#FF5F15"/>
</g>
<path d="M16.1166 3.38422C16.1166 4.07164 15.9173 4.70618 15.5935 5.23497C15.0205 6.16034 15.1949 5.07633 14.1985 5.79019C13.6256 6.18678 13.227 5.97527 11.9317 5.55224C11.2094 5.31428 10.8108 5.79019 10.5119 5.55224C9.91406 5.04989 9.71478 4.25672 9.71478 3.38422C9.71478 1.53348 11.1595 0 12.9281 0C14.6967 0 16.1166 1.53348 16.1166 3.38422Z" fill="url(#paint6_radial_18_369)"/>
<path opacity="0.2" d="M12.9281 0.528785C14.4227 0.528785 15.6184 1.82431 15.6184 3.38422C15.6184 3.93944 15.4689 4.46823 15.17 4.94414C15.1451 4.99701 15.1202 5.02345 15.0953 5.04989C15.0454 5.02345 14.9458 5.02345 14.8213 5.02345C14.5473 5.02345 14.2732 5.12921 13.9245 5.36716C13.7751 5.47292 13.6754 5.49936 13.5758 5.49936C13.3516 5.49936 13.0029 5.3936 12.4798 5.20853C12.3552 5.15565 12.2307 5.12921 12.0812 5.07633C11.9068 5.02345 11.7076 4.97057 11.5332 4.97057C11.2841 4.97057 11.0599 5.02345 10.9104 5.07633C10.8606 5.07633 10.8108 5.10277 10.7859 5.10277C10.4122 4.75906 10.2379 4.20384 10.2379 3.41066C10.2379 1.82431 11.4335 0.528785 12.9281 0.528785ZM12.9281 0C11.1595 0 9.73969 1.53348 9.73969 3.38422C9.73969 4.25672 9.93896 5.04989 10.5368 5.55224C10.6115 5.60512 10.6613 5.63156 10.761 5.63156C10.9603 5.63156 11.2094 5.49936 11.5581 5.49936C11.6826 5.49936 11.8072 5.5258 11.9816 5.57868C12.8036 5.84307 13.252 6.02814 13.6256 6.02814C13.8498 6.02814 14.0242 5.97527 14.2483 5.81663C14.5223 5.60512 14.7216 5.55224 14.8462 5.55224C15.0205 5.55224 15.1202 5.65799 15.2447 5.65799C15.3444 5.65799 15.444 5.57868 15.6433 5.26141C15.9671 4.73262 16.1664 4.09808 16.1664 3.41066C16.1166 1.53348 14.6967 0 12.9281 0Z" fill="#434343"/>
<defs>
<radialGradient id="paint0_radial_18_369" cx="0" cy="0" r="1" gradientUnits="userSpaceOnUse" gradientTransform="translate(12.9281 28.29) scale(5.73815 6.09049)">
<stop stop-color="#38A4DD"/>
<stop offset="1" stop-color="#58C1EF"/>
</radialGradient>
<radialGradient id="paint1_radial_18_369" cx="0" cy="0" r="1" gradientUnits="userSpaceOnUse" gradientTransform="translate(12.9235 24.4562) scale(3.75055 3.98085)">
<stop offset="0.1555" stop-color="#44B3E6"/>
<stop offset="0.8865" stop-color="#84D2F6"/>
</radialGradient>
<radialGradient id="paint2_radial_18_369" cx="0" cy="0" r="1" gradientUnits="userSpaceOnUse" gradientTransform="translate(10.4643 15.0408) rotate(5.82091) scale(12.3186 8.20475)">
<stop offset="0.1135" stop-color="#84D2F6"/>
<stop offset="0.8445" stop-color="#44B3E6"/>
</radialGradient>
<radialGradient id="paint3_radial_18_369" cx="0" cy="0" r="1" gradientUnits="userSpaceOnUse" gradientTransform="translate(12.757 13.016) scale(13.2557 6.93492)">
<stop offset="0.7659" stop-color="#BEDEF5"/>
<stop offset="0.9686" stop-color="#89B4D4"/>
</radialGradient>
<radialGradient id="paint4_radial_18_369" cx="0" cy="0" r="1" gradientUnits="userSpaceOnUse" gradientTransform="translate(12.7267 -7.73806) scale(30.796 32.687)">
<stop offset="0.3749" stop-color="#FAE9E7"/>
<stop offset="0.7183" stop-color="#FAE9E7"/>
<stop offset="0.8104" stop-color="#A1887F"/>
</radialGradient>
<radialGradient id="paint5_radial_18_369" cx="0" cy="0" r="1" gradientUnits="userSpaceOnUse" gradientTransform="translate(12.7306 2.23287) scale(16.9371 16.2693)">
<stop stop-color="#FF5F15"/>
<stop offset="0.4262" stop-color="#ED9AEF" stop-opacity="0.82"/>
<stop offset="0.7269" stop-color="#FACDF3"/>
</radialGradient>
<radialGradient id="paint6_radial_18_369" cx="0" cy="0" r="1" gradientUnits="userSpaceOnUse" gradientTransform="translate(12.3004 2.21193) scale(3.6261 3.84876)">
<stop offset="0.4128" stop-color="#EF4438"/>
<stop offset="0.6561" stop-color="#D32E2E"/>
</radialGradient>
</defs>
</svg>
