<svg width="20" height="29" viewBox="0 0 20 29" fill="none" xmlns="http://www.w3.org/2000/svg">
<path d="M2.25078 9.43806C2.66749 13.172 5.88066 16.445 9.78672 16.445C13.9761 16.445 17.3716 12.6819 17.3716 8.62111C17.3716 8.5864 17.3694 8.55264 17.3689 8.51934C13.047 7.90077 7.54084 11.2122 2.25078 9.43806Z" fill="#FF5F15"/>
<path d="M19.5681 8.65019C19.5681 3.3025 17.0296 0.000937945 17.0292 0H2.53852C2.53852 0 0 3.30719 0 8.65019C0 13.7282 4.11642 18.4451 9.29263 18.7279C9.23215 21.6768 8.99422 24.7477 8.30933 25.8113C7.34471 27.3101 3.96388 26.5401 3.96388 28.1383H15.6056C15.6056 26.5396 12.2234 27.3101 11.2588 25.8113C10.5739 24.7477 10.336 21.6773 10.2755 18.7279C15.4504 18.4456 19.5681 13.7282 19.5681 8.65019ZM9.78406 17.4711C5.42837 17.4711 1.84563 13.822 1.38133 9.65895C1.34753 9.35693 1.32752 9.05398 1.32752 8.74868C1.32752 4.1293 3.52137 1.27138 3.52137 1.27138H16.0463C16.0467 1.27279 18.2015 4.08006 18.2375 8.63519C18.2379 8.6727 18.2406 8.70975 18.2406 8.74868C18.2406 13.2757 14.4546 17.4711 9.78406 17.4711Z" fill="black"/>
</svg>
